<svg xmlns="http://www.w3.org/2000/svg" viewBox="0 0 1024 256"><defs><style>.a{fill:#ff4200;}</style></defs><title>quadient_logo_RGB</title><path d="M121.788,68.03A7.825,7.825,0,0,1,124,73.658V248.319a7.388,7.388,0,0,1-2.212,5.5,8.19,8.19,0,0,1-11.123,0,7.371,7.371,0,0,1-2.191-5.5V171.5q-6.479,11.787-19.3,19.978a51.434,51.434,0,0,1-28.335,8.2,56.344,56.344,0,0,1-30.947-8.837,61.869,61.869,0,0,1-21.867-24.46Q0,150.764,0,131.291a75.069,75.069,0,0,1,8.027-34.83A61.794,61.794,0,0,1,29.894,72a55.8,55.8,0,0,1,30.673-8.838A55.053,55.053,0,0,1,88.8,70.719a52,52,0,0,1,19.677,19.593V73.658a7.807,7.807,0,0,1,2.191-5.628,7.867,7.867,0,0,1,11.123,0Zm-35.2,110.389a47,47,0,0,0,16.833-19.343,62.46,62.46,0,0,0,6.088-27.785,61.122,61.122,0,0,0-6.088-27.409A48.175,48.175,0,0,0,86.585,84.549,43.144,43.144,0,0,0,62.379,77.5a43.146,43.146,0,0,0-24.206,7.045,47.975,47.975,0,0,0-16.811,19.333,60.831,60.831,0,0,0-6.088,27.409,61.374,61.374,0,0,0,6.088,27.66,47.939,47.939,0,0,0,16.811,19.343,43.225,43.225,0,0,0,24.206,7.045A43.8,43.8,0,0,0,86.585,178.419Z"/><path d="M265.843,68.213a7.739,7.739,0,0,1,2.157,5.6v73.368q0,25.5-14,39.162Q239.967,200,215.251,200q-24.486,0-38.374-13.657T163,147.181V73.813a7.739,7.739,0,0,1,2.157-5.6,7.908,7.908,0,0,1,10.973,0,7.739,7.739,0,0,1,2.157,5.6v73.368q0,18.739,9.687,28.49,9.677,9.767,27.277,9.761,17.829,0,27.65-9.761,9.8-9.75,9.812-28.49V73.813a7.67,7.67,0,0,1,2.178-5.6,7.882,7.882,0,0,1,10.952,0Z"/><path d="M419.824,69.357A7.858,7.858,0,0,1,422,74.974v114.82a7.64,7.64,0,1,1-15.276,0v-17.1q-6.373,11.478-19.11,19.4A51.628,51.628,0,0,1,359.86,200a54.794,54.794,0,0,1-30.7-8.929,61.409,61.409,0,0,1-21.39-24.5Q300,151.01,300,131.611t7.9-34.823a60.715,60.715,0,0,1,21.515-24.119,56.84,56.84,0,0,1,58.2-1.277,48.751,48.751,0,0,1,19.11,19.4V74.974a7.841,7.841,0,0,1,2.156-5.617,7.673,7.673,0,0,1,10.944,0ZM385.189,178.7A47.612,47.612,0,0,0,401.75,159.3a62.951,62.951,0,0,0,5.99-27.69,60.947,60.947,0,0,0-5.99-27.047,47.826,47.826,0,0,0-16.561-19.259,42.064,42.064,0,0,0-23.816-7.019,42.615,42.615,0,0,0-23.815,6.894,46.792,46.792,0,0,0-16.541,19,61.029,61.029,0,0,0-5.99,27.431,63.778,63.778,0,0,0,5.866,27.69A46.536,46.536,0,0,0,337.309,178.7a44.335,44.335,0,0,0,47.88,0Z"/><path d="M573.788,2.188A7.435,7.435,0,0,1,576,7.714v182a7.437,7.437,0,0,1-2.212,5.527,8.165,8.165,0,0,1-11.123,0,7.421,7.421,0,0,1-2.191-5.527V171.7a55.544,55.544,0,0,1-19.3,20.065A51.27,51.27,0,0,1,512.841,200a56.161,56.161,0,0,1-30.947-8.876,62.043,62.043,0,0,1-21.867-24.566Q452,150.873,452,131.316a75.658,75.658,0,0,1,8.027-34.981,61.969,61.969,0,0,1,21.867-24.566,55.619,55.619,0,0,1,30.673-8.876,54.868,54.868,0,0,1,28.23,7.588,52.109,52.109,0,0,1,19.677,19.678V7.714a7.418,7.418,0,0,1,2.191-5.526,8.162,8.162,0,0,1,11.123,0Zm-35.2,176.459a47.137,47.137,0,0,0,16.833-19.426,62.958,62.958,0,0,0,6.088-27.9,61.614,61.614,0,0,0-6.088-27.529,48.326,48.326,0,0,0-16.833-19.416,44.941,44.941,0,0,0-48.412,0,48.126,48.126,0,0,0-16.811,19.416,61.32,61.32,0,0,0-6.088,27.529,61.859,61.859,0,0,0,6.088,27.779,48.093,48.093,0,0,0,16.811,19.427,43.092,43.092,0,0,0,24.206,7.075A43.652,43.652,0,0,0,538.585,178.647Z"/><path class="a" d="M629.742,195.841a8.686,8.686,0,0,1-11.462,0,7.177,7.177,0,0,1-2.28-5.453V73.623a7.217,7.217,0,0,1,2.28-5.464,8.686,8.686,0,0,1,11.462,0A7.2,7.2,0,0,1,632,73.623V190.388A7.159,7.159,0,0,1,629.742,195.841Z"/><path class="a" d="M680,8c0-5-3-8-8-8H620c-5,0-8,3-8,8s3,8,8,8h44V60c0,5,3,8,8,8s8-3,8-8Z"/><path d="M791.7,129.96a7.7,7.7,0,0,1-5.407,2.17H688.942a58.4,58.4,0,0,0,6.308,27.42A47.27,47.27,0,0,0,713.273,178.7Q725,185.7,740.958,185.714a47.216,47.216,0,0,0,22.151-5.108,45.466,45.466,0,0,0,15.7-13.01,8.726,8.726,0,0,1,5.407-2.305,6.412,6.412,0,0,1,4.632,2.046,6.3,6.3,0,0,1,2.074,4.589,7.5,7.5,0,0,1-2.577,5.357,64.656,64.656,0,0,1-20.727,16.332A57.313,57.313,0,0,1,741.209,200q-19.836,0-35.019-8.42a60.143,60.143,0,0,1-23.7-23.61Q674,152.8,674,132.888q0-20.916,8.362-36.609t22.277-23.994A56.985,56.985,0,0,1,734.251,64a61.082,61.082,0,0,1,28.984,7.143,56.728,56.728,0,0,1,22,20.921q8.518,13.782,8.76,32.663A6.957,6.957,0,0,1,791.7,129.96ZM706.567,89q-12.73,10.216-16.346,29.341h87.81v-2.035a40.2,40.2,0,0,0-7.712-20.028,41.959,41.959,0,0,0-16.095-13.02A47.268,47.268,0,0,0,734.251,78.8Q719.32,78.8,706.567,89Z"/><path d="M920.83,77.96Q932.011,91.925,932,114.981v75.335a7.221,7.221,0,0,1-2.317,5.5,7.9,7.9,0,0,1-10.9,0,7.412,7.412,0,0,1-2.171-5.5V115.753q0-16.656-8.351-27.034-8.33-10.368-25.784-10.373a46.1,46.1,0,0,0-36.932,18.828,31.192,31.192,0,0,0-6.159,18.579v74.563a7.695,7.695,0,1,1-15.387,0V75.531a7.7,7.7,0,1,1,15.387,0V89.616q6.921-11.01,19.875-18.318A53.488,53.488,0,0,1,885.819,64Q909.681,64,920.83,77.96Z"/><path d="M998.647,82.307v85.557q0,9.711,3.684,13.156c2.442,2.3,4.107,3.439,8.134,3.439a15.794,15.794,0,0,0,3.963-.634,15.051,15.051,0,0,1,3.684-.633,5.278,5.278,0,0,1,4.07,1.912,6.523,6.523,0,0,1,1.713,4.468c0,2.39-1.413,4.386-4.219,6.007a19.788,19.788,0,0,1-10,2.421,42.47,42.47,0,0,1-11.026-1.278q-5.526-1.278-10.667-7.659t-5.141-20.43V82.307H963.625a7.705,7.705,0,0,1-5.4-2.047,6.968,6.968,0,0,1,0-10.215,7.742,7.742,0,0,1,5.4-2.037h19.214V39.659a7.331,7.331,0,0,1,2.249-5.5,8.477,8.477,0,0,1,11.31,0,7.331,7.331,0,0,1,2.249,5.5V68.008h17.985a7.022,7.022,0,0,1,5.14,2.3A7.2,7.2,0,0,1,1024,75.417a6.386,6.386,0,0,1-2.1,4.978,7.526,7.526,0,0,1-5.269,1.912Z"/></svg>