<svg width="512" height="512" viewBox="0 0 512 512" fill="none" xmlns="http://www.w3.org/2000/svg">
  <defs>
    <linearGradient id="shield_grad" x1="256" y1="40" x2="256" y2="472" gradientUnits="userSpaceOnUse">
      <stop stop-color="#2D2D2D"/>
      <stop offset="1" stop-color="#1A1A1A"/>
    </linearGradient>
    <linearGradient id="glow_grad" x1="256" y1="40" x2="256" y2="472" gradientUnits="userSpaceOnUse">
      <stop stop-color="#FF4200"/>
      <stop offset="1" stop-color="#FF8A00"/>
    </linearGradient>
    <filter id="neon_glow" x="-20%" y="-20%" width="140%" height="140%">
      <feGaussianBlur stdDeviation="15" result="blur"/>
      <feComposite in="SourceGraphic" in2="blur" operator="over"/>
    </filter>
  </defs>
  
  <!-- Outer Glow Shadow -->
  <path d="M256 40L420 100V280C420 380 340 450 256 472C172 450 92 380 92 280V100L256 40Z" fill="#FF4200" fill-opacity="0.1" filter="url(#neon_glow)"/>
  
  <!-- Main Shield Body -->
  <path d="M256 40L420 100V280C420 380 340 450 256 472C172 450 92 380 92 280V100L256 40Z" fill="url(#shield_grad)" stroke="url(#glow_grad)" stroke-width="8"/>
  
  <!-- Internal Decorative Border -->
  <path d="M256 70L390 120V270C390 350 326 410 256 430C186 410 122 350 122 270V120L256 70Z" stroke="#FFFFFF" stroke-opacity="0.05" stroke-width="2"/>
  
  <!-- Check Mark -->
  <path d="M190 260L240 310L330 200" stroke="url(#glow_grad)" stroke-width="32" stroke-linecap="round" stroke-linejoin="round" filter="url(#neon_glow)"/>
  <path d="M190 260L240 310L330 200" stroke="#FFFFFF" stroke-opacity="0.9" stroke-width="8" stroke-linecap="round" stroke-linejoin="round"/>
  
  <!-- Corner Detailing -->
  <circle cx="256" cy="40" r="4" fill="#FF4200"/>
  <circle cx="420" cy="100" r="4" fill="#FF4200"/>
  <circle cx="92" cy="100" r="4" fill="#FF4200"/>
</svg>
